<mxfile host="drawio-plugin" modified="2022-12-08T18:45:50.664Z" agent="5.0 (Windows NT 6.2; Win64; x64) AppleWebKit/537.36 (KHTML, like Gecko) Chrome/98.0.4758.102 Safari/537.36" etag="djr_XbE5_5mmKkJ7A4OS" version="20.5.3" type="embed"><diagram id="23iRSUPoRavnBvh4doch" name="MusicCorp"><mxGraphModel dx="535" dy="411" grid="1" gridSize="10" guides="1" tooltips="1" connect="1" arrows="1" fold="1" page="1" pageScale="1" pageWidth="827" pageHeight="1169" math="0" shadow="0"><root><mxCell id="0"/><mxCell id="1" parent="0"/><mxCell id="RXbtguzAtdwIQvgYZh3G-12" value="" style="endArrow=none;dashed=1;html=1;rounded=0;shadow=0;sketch=1;fontFamily=Comic Sans MS;fontSize=12;" edge="1" parent="1"><mxGeometry width="50" height="50" relative="1" as="geometry"><mxPoint x="190" y="840" as="sourcePoint"/><mxPoint x="190" y="560" as="targetPoint"/></mxGeometry></mxCell><mxCell id="tCSPe5C31GYXscqeNvCz-13" style="edgeStyle=none;rounded=0;sketch=1;orthogonalLoop=1;jettySize=auto;html=1;shadow=0;fontFamily=Comic Sans MS;fontSize=23;" edge="1" parent="1" source="tCSPe5C31GYXscqeNvCz-2" target="tCSPe5C31GYXscqeNvCz-7"><mxGeometry relative="1" as="geometry"/></mxCell><mxCell id="tCSPe5C31GYXscqeNvCz-2" value="Customer" style="shape=umlActor;verticalLabelPosition=bottom;verticalAlign=top;html=1;outlineConnect=0;shadow=0;sketch=1;fontFamily=Comic Sans MS;" vertex="1" parent="1"><mxGeometry x="70" y="245" width="30" height="60" as="geometry"/></mxCell><mxCell id="tCSPe5C31GYXscqeNvCz-3" value="Create order" style="ellipse;whiteSpace=wrap;html=1;shadow=0;sketch=1;fontFamily=Comic Sans MS;" vertex="1" parent="1"><mxGeometry x="340" y="90" width="140" height="70" as="geometry"/></mxCell><mxCell id="tCSPe5C31GYXscqeNvCz-4" value="Put product into order" style="ellipse;whiteSpace=wrap;html=1;shadow=0;sketch=1;fontFamily=Comic Sans MS;" vertex="1" parent="1"><mxGeometry x="340" y="180" width="140" height="70" as="geometry"/></mxCell><mxCell id="tCSPe5C31GYXscqeNvCz-5" value="Set shipping address" style="ellipse;whiteSpace=wrap;html=1;shadow=0;sketch=1;fontFamily=Comic Sans MS;" vertex="1" parent="1"><mxGeometry x="340" y="280" width="140" height="70" as="geometry"/></mxCell><mxCell id="tCSPe5C31GYXscqeNvCz-6" value="Pay for order" style="ellipse;whiteSpace=wrap;html=1;shadow=0;sketch=1;fontFamily=Comic Sans MS;" vertex="1" parent="1"><mxGeometry x="340" y="380" width="140" height="70" as="geometry"/></mxCell><mxCell id="tCSPe5C31GYXscqeNvCz-9" style="rounded=0;orthogonalLoop=1;jettySize=auto;html=1;fontFamily=Comic Sans MS;fontSize=23;entryX=0;entryY=0.5;entryDx=0;entryDy=0;shadow=0;sketch=1;" edge="1" parent="1" source="tCSPe5C31GYXscqeNvCz-7" target="tCSPe5C31GYXscqeNvCz-3"><mxGeometry relative="1" as="geometry"/></mxCell><mxCell id="tCSPe5C31GYXscqeNvCz-10" style="edgeStyle=none;rounded=0;sketch=1;orthogonalLoop=1;jettySize=auto;html=1;entryX=0;entryY=0.5;entryDx=0;entryDy=0;shadow=0;fontFamily=Comic Sans MS;fontSize=23;" edge="1" parent="1" source="tCSPe5C31GYXscqeNvCz-7" target="tCSPe5C31GYXscqeNvCz-4"><mxGeometry relative="1" as="geometry"/></mxCell><mxCell id="tCSPe5C31GYXscqeNvCz-11" style="edgeStyle=none;rounded=0;sketch=1;orthogonalLoop=1;jettySize=auto;html=1;entryX=0;entryY=0.5;entryDx=0;entryDy=0;shadow=0;fontFamily=Comic Sans MS;fontSize=23;" edge="1" parent="1" source="tCSPe5C31GYXscqeNvCz-7" target="tCSPe5C31GYXscqeNvCz-5"><mxGeometry relative="1" as="geometry"/></mxCell><mxCell id="tCSPe5C31GYXscqeNvCz-12" style="edgeStyle=none;rounded=0;sketch=1;orthogonalLoop=1;jettySize=auto;html=1;entryX=0;entryY=0.5;entryDx=0;entryDy=0;shadow=0;fontFamily=Comic Sans MS;fontSize=23;" edge="1" parent="1" source="tCSPe5C31GYXscqeNvCz-7" target="tCSPe5C31GYXscqeNvCz-6"><mxGeometry relative="1" as="geometry"/></mxCell><mxCell id="tCSPe5C31GYXscqeNvCz-7" value="Purchase a CD" style="ellipse;whiteSpace=wrap;html=1;shadow=0;sketch=1;fontFamily=Comic Sans MS;" vertex="1" parent="1"><mxGeometry x="160" y="240" width="140" height="70" as="geometry"/></mxCell><mxCell id="RXbtguzAtdwIQvgYZh3G-1" value="UseCases" style="text;html=1;align=center;verticalAlign=middle;resizable=0;points=[];autosize=1;strokeColor=none;fillColor=none;fontSize=17;fontFamily=Comic Sans MS;" vertex="1" parent="1"><mxGeometry x="35" y="40" width="100" height="30" as="geometry"/></mxCell><mxCell id="RXbtguzAtdwIQvgYZh3G-2" value="Aggregates" style="text;html=1;align=center;verticalAlign=middle;resizable=0;points=[];autosize=1;strokeColor=none;fillColor=none;fontSize=17;fontFamily=Comic Sans MS;" vertex="1" parent="1"><mxGeometry x="40" y="520" width="120" height="30" as="geometry"/></mxCell><mxCell id="RXbtguzAtdwIQvgYZh3G-9" value="Has many" style="edgeStyle=none;rounded=0;sketch=1;orthogonalLoop=1;jettySize=auto;html=1;shadow=0;fontFamily=Comic Sans MS;fontSize=12;" edge="1" parent="1" source="RXbtguzAtdwIQvgYZh3G-4" target="RXbtguzAtdwIQvgYZh3G-5"><mxGeometry relative="1" as="geometry"/></mxCell><mxCell id="RXbtguzAtdwIQvgYZh3G-17" value="Make a payment" style="edgeStyle=none;sketch=1;orthogonalLoop=1;jettySize=auto;html=1;shadow=0;fontFamily=Comic Sans MS;fontSize=12;curved=1;" edge="1" parent="1" source="RXbtguzAtdwIQvgYZh3G-4" target="RXbtguzAtdwIQvgYZh3G-8"><mxGeometry x="-0.7185" y="8" relative="1" as="geometry"><Array as="points"><mxPoint x="150" y="900"/></Array><mxPoint as="offset"/></mxGeometry></mxCell><mxCell id="RXbtguzAtdwIQvgYZh3G-4" value="Customer" style="rounded=1;whiteSpace=wrap;html=1;shadow=0;sketch=1;fontFamily=Comic Sans MS;fontSize=12;" vertex="1" parent="1"><mxGeometry x="45" y="610" width="120" height="60" as="geometry"/></mxCell><mxCell id="RXbtguzAtdwIQvgYZh3G-10" value="Has many as items" style="edgeStyle=none;rounded=0;sketch=1;orthogonalLoop=1;jettySize=auto;html=1;shadow=0;fontFamily=Comic Sans MS;fontSize=12;" edge="1" parent="1" source="RXbtguzAtdwIQvgYZh3G-5" target="RXbtguzAtdwIQvgYZh3G-7"><mxGeometry relative="1" as="geometry"/></mxCell><mxCell id="RXbtguzAtdwIQvgYZh3G-11" value="Has one" style="edgeStyle=none;rounded=0;sketch=1;orthogonalLoop=1;jettySize=auto;html=1;shadow=0;fontFamily=Comic Sans MS;fontSize=12;" edge="1" parent="1" source="RXbtguzAtdwIQvgYZh3G-5" target="RXbtguzAtdwIQvgYZh3G-8"><mxGeometry relative="1" as="geometry"/></mxCell><mxCell id="RXbtguzAtdwIQvgYZh3G-5" value="Order" style="rounded=1;whiteSpace=wrap;html=1;shadow=0;sketch=1;fontFamily=Comic Sans MS;fontSize=12;" vertex="1" parent="1"><mxGeometry x="310" y="610" width="120" height="60" as="geometry"/></mxCell><mxCell id="RXbtguzAtdwIQvgYZh3G-7" value="Product" style="rounded=1;whiteSpace=wrap;html=1;shadow=0;sketch=1;fontFamily=Comic Sans MS;fontSize=12;" vertex="1" parent="1"><mxGeometry x="220" y="740" width="120" height="60" as="geometry"/></mxCell><mxCell id="RXbtguzAtdwIQvgYZh3G-8" value="Payment" style="rounded=1;whiteSpace=wrap;html=1;shadow=0;sketch=1;fontFamily=Comic Sans MS;fontSize=12;" vertex="1" parent="1"><mxGeometry x="410" y="740" width="120" height="60" as="geometry"/></mxCell><mxCell id="RXbtguzAtdwIQvgYZh3G-13" value="" style="endArrow=none;dashed=1;html=1;rounded=0;shadow=0;sketch=1;fontFamily=Comic Sans MS;fontSize=12;" edge="1" parent="1"><mxGeometry width="50" height="50" relative="1" as="geometry"><mxPoint x="190" y="720" as="sourcePoint"/><mxPoint x="560" y="720" as="targetPoint"/></mxGeometry></mxCell><mxCell id="RXbtguzAtdwIQvgYZh3G-14" value="" style="endArrow=none;dashed=1;html=1;rounded=0;shadow=0;sketch=1;fontFamily=Comic Sans MS;fontSize=12;" edge="1" parent="1"><mxGeometry width="50" height="50" relative="1" as="geometry"><mxPoint x="370" y="840" as="sourcePoint"/><mxPoint x="370" y="720" as="targetPoint"/></mxGeometry></mxCell><mxCell id="RXbtguzAtdwIQvgYZh3G-18" value="Event Storming" style="text;html=1;align=center;verticalAlign=middle;resizable=0;points=[];autosize=1;strokeColor=none;fillColor=none;fontSize=17;fontFamily=Comic Sans MS;" vertex="1" parent="1"><mxGeometry x="50" y="930" width="150" height="30" as="geometry"/></mxCell><mxCell id="GzQ4yoHQWWwTdIttve31-1" value="Order Placed&lt;br&gt;&amp;lt;event&amp;gt;" style="rounded=0;whiteSpace=wrap;html=1;shadow=0;sketch=1;fontFamily=Comic Sans MS;fontSize=12;fillColor=#fad7ac;strokeColor=#b46504;fillStyle=solid;" vertex="1" parent="1"><mxGeometry x="260" y="980" width="120" height="60" as="geometry"/></mxCell><mxCell id="GzQ4yoHQWWwTdIttve31-2" value="Order Canceled&lt;br&gt;&amp;lt;event&amp;gt;" style="rounded=0;whiteSpace=wrap;html=1;shadow=0;sketch=1;fontFamily=Comic Sans MS;fontSize=12;fillColor=#fad7ac;strokeColor=#b46504;fillStyle=solid;" vertex="1" parent="1"><mxGeometry x="260" y="1070" width="120" height="60" as="geometry"/></mxCell><mxCell id="GzQ4yoHQWWwTdIttve31-3" value="Payment Inititated&lt;br&gt;&amp;lt;event&amp;gt;" style="rounded=0;whiteSpace=wrap;html=1;shadow=0;sketch=1;fontFamily=Comic Sans MS;fontSize=12;fillColor=#fad7ac;strokeColor=#b46504;fillStyle=solid;" vertex="1" parent="1"><mxGeometry x="260" y="1160" width="120" height="60" as="geometry"/></mxCell><mxCell id="GzQ4yoHQWWwTdIttve31-4" value="Payment Recevied&lt;br&gt;&amp;lt;event&amp;gt;" style="rounded=0;whiteSpace=wrap;html=1;shadow=0;sketch=1;fontFamily=Comic Sans MS;fontSize=12;fillColor=#fad7ac;strokeColor=#b46504;fillStyle=solid;" vertex="1" parent="1"><mxGeometry x="260" y="1240" width="120" height="60" as="geometry"/></mxCell><mxCell id="GzQ4yoHQWWwTdIttve31-8" style="edgeStyle=none;curved=1;sketch=1;orthogonalLoop=1;jettySize=auto;html=1;shadow=0;fontFamily=Comic Sans MS;fontSize=12;" edge="1" parent="1" source="GzQ4yoHQWWwTdIttve31-7" target="GzQ4yoHQWWwTdIttve31-1"><mxGeometry relative="1" as="geometry"/></mxCell><mxCell id="GzQ4yoHQWWwTdIttve31-7" value="Create Order&lt;br&gt;&amp;lt;command&amp;gt;" style="rounded=0;whiteSpace=wrap;html=1;shadow=0;sketch=1;fontFamily=Comic Sans MS;fontSize=12;fillColor=#b1ddf0;strokeColor=#10739e;fillStyle=solid;" vertex="1" parent="1"><mxGeometry x="80" y="980" width="120" height="60" as="geometry"/></mxCell><mxCell id="GzQ4yoHQWWwTdIttve31-10" style="edgeStyle=none;curved=1;sketch=1;orthogonalLoop=1;jettySize=auto;html=1;shadow=0;fontFamily=Comic Sans MS;fontSize=12;" edge="1" parent="1" source="GzQ4yoHQWWwTdIttve31-9" target="GzQ4yoHQWWwTdIttve31-2"><mxGeometry relative="1" as="geometry"/></mxCell><mxCell id="GzQ4yoHQWWwTdIttve31-9" value="Cancel Order&lt;br&gt;&amp;lt;command&amp;gt;" style="rounded=0;whiteSpace=wrap;html=1;shadow=0;sketch=1;fontFamily=Comic Sans MS;fontSize=12;fillColor=#b1ddf0;strokeColor=#10739e;fillStyle=solid;" vertex="1" parent="1"><mxGeometry x="80" y="1070" width="120" height="60" as="geometry"/></mxCell><mxCell id="GzQ4yoHQWWwTdIttve31-11" value="Checkout Order&lt;br&gt;&amp;lt;command&amp;gt;" style="rounded=0;whiteSpace=wrap;html=1;shadow=0;sketch=1;fontFamily=Comic Sans MS;fontSize=12;fillColor=#b1ddf0;strokeColor=#10739e;fillStyle=solid;" vertex="1" parent="1"><mxGeometry x="80" y="1160" width="120" height="60" as="geometry"/></mxCell></root></mxGraphModel></diagram></mxfile>